<svg xmlns="http://www.w3.org/2000/svg" viewBox="0 0 294.82 304">
  <defs>
    <style>
      .cls-1, .cls-7 {
        fill: #3a4042;
      }

      .cls-1 {
        stroke: #fffcee;
        stroke-width: 8px;
      }

      .cls-2 {
        fill: #fffcee;
      }

      .cls-3 {
        fill: #eae6da;
      }

      .cls-4 {
        fill: #f25a70;
      }

      .cls-5 {
        fill: #828282;
      }

      .cls-6 {
        fill: #f4f1e4;
      }
    </style>
  </defs>
  <g id="logo-avatar" transform="translate(-4.623 -3.332)">
    <g id="Group_6" data-name="Group 6">
      <circle id="Ellipse_1" data-name="Ellipse 1" class="cls-1" cx="143.41" cy="143.41" r="143.41" transform="translate(8.623 7.332)"/>
      <g id="Group_1" data-name="Group 1">
        <path id="Path_1" data-name="Path 1" class="cls-2" d="M272.363,134.125c-39.2,0-56.656,45.581-57.193,47-1.26,3.885-9.9,31.456-9.9,53.5,0,41.664-34.558,65.772-76.482,65.772-42.271,0-76.517-24.472-76.517-66.725,0,0,0-23.345,2.842-44.073-6.742-7.626-7.73-19.844-7.73-19.844a13.493,13.493,0,0,0-5.439,2.719.467.467,0,0,1-.764-.406c.768-6.52,7.371-20.356,20.45-22.348a118.338,118.338,0,0,1,7.608-20.9A78.7,78.7,0,0,1,169.555,93.657c26.447,0,39.22-14.038,39.22-14.038,5.938,0,13.1,15.537,9.779,21.326a.169.169,0,0,0,.237.219c11.017-7.019,17.228-24.335,17.228-24.335,12.582,6.291,19.186,34.558,12.426,41.317C270.162,121.49,276,134.125,272.363,134.125Z"/>
      </g>
      <g id="Group_2" data-name="Group 2">
        <path id="Path_2" data-name="Path 2" class="cls-3" d="M126.9,300.366c-41.4-.716-74.625-25.059-74.625-66.684,0,0-.347-5.975.63-20.034C96.187,206.845,74.911,268.88,126.9,300.366Z"/>
      </g>
      <g id="Group_3" data-name="Group 3">
        <path id="Path_3" data-name="Path 3" class="cls-4" d="M273.37,133.016c0,.693-.347,1.109-1.005,1.109-.624,0-1.23.017-1.854.035-34.784,1.161-50.208,34.87-52.825,41.283-.017.035-.035.069-.052.1-1.421,2.929-2.218,4.957-2.426,5.477a68.58,68.58,0,0,0,1.976-15.113,78.616,78.616,0,0,0-47.608-72.253c.676,0,1.352-.017,2.028-.035q.624,0,1.248-.052c.433,0,.867-.035,1.3-.052.659-.052,1.282-.1,1.906-.156.381-.035.763-.069,1.144-.121a61.627,61.627,0,0,0,7.227-1.179c.4-.1.8-.191,1.179-.295q.624-.13,1.248-.312c.468-.121.936-.243,1.386-.381.728-.225,1.456-.451,2.149-.676.555-.191,1.109-.381,1.629-.589.537-.191,1.075-.381,1.577-.607.52-.191,1.005-.4,1.49-.624.953-.416,1.872-.849,2.738-1.282,1.092-.555,2.1-1.109,3.033-1.664a42.922,42.922,0,0,0,3.917-2.582,37.968,37.968,0,0,0,2.946-2.409l.035-.035a1.757,1.757,0,0,1,2.27.017c3.276,2.842,11.75,11.265,8.579,20.208-.017.035-.035.069-.052.1a.151.151,0,0,0,.052.191.16.16,0,0,0,.208.035c.329-.208.641-.416.971-.659a24.657,24.657,0,0,0,2.132-1.681c.26-.225.52-.468.78-.711.416-.381.832-.8,1.231-1.213.191-.191.381-.381.555-.589l.1-.1c.121-.121.225-.243.329-.364.121-.139.243-.26.347-.381.035-.035.052-.069.069-.087q.286-.312.52-.624c.1-.121.208-.225.295-.347.312-.381.624-.78.919-1.161.173-.225.347-.451.5-.676a.405.405,0,0,0,.1-.156s.035-.017.035-.035a8.114,8.114,0,0,0,.485-.676c.191-.26.381-.52.537-.78a1.338,1.338,0,0,0,.191-.277,2.3,2.3,0,0,0,.173-.26c.139-.191.26-.381.381-.572.26-.4.52-.815.763-1.213.017-.017.035-.035.035-.052.26-.4.485-.8.711-1.2a1.242,1.242,0,0,0,.121-.208c.347-.572.659-1.144.953-1.7.121-.208.225-.4.329-.589.208-.381.4-.78.589-1.144.156-.295.295-.589.451-.867a.064.064,0,0,1,.017-.052.631.631,0,0,1,.087-.191c.191-.364.364-.728.52-1.075.121-.26.243-.52.347-.763.069-.139.121-.26.173-.381.035-.069.069-.139.1-.208.121-.295.243-.555.347-.815a1.616,1.616,0,0,1,.121-.243,1.707,1.707,0,0,1,2.756-.208,80.765,80.765,0,0,1,10.659,15.373c.087.208.139.416.225.624,2.981,9.151,3.345,18.908,0,22.877-.1.121-.208.243-.329.364,1.352.208,2.652.451,3.882.728.52.121,1.023.243,1.525.364.26.069.52.139.763.208.485.121.953.26,1.4.4a35.727,35.727,0,0,1,12.808,6.568c.243.208.468.416.693.624a.177.177,0,0,1,.087.069c.225.208.433.416.641.624s.416.416.607.641c.191.208.381.416.537.624a12.156,12.156,0,0,1,.78,1.023,6.955,6.955,0,0,1,1.161,2.617C273.353,132.773,273.37,132.894,273.37,133.016Z"/>
      </g>
      <path id="Path_4" data-name="Path 4" class="cls-5" d="M64.861,149.489c-15.219,0-22.867,15.55-23.681,22.588a.464.464,0,0,0,.764.4,13.715,13.715,0,0,1,5.451-2.731s2.1,25.85,20.96,25.85C91.41,195.6,89.314,149.489,64.861,149.489Z"/>
      <g id="Group_4" data-name="Group 4">
        <path id="Path_5" data-name="Path 5" class="cls-6" d="M142.749,267.041c11.376,1.984,32.849,3.666,38.788-2.273,3.843-3.843-8.774-20.983-20.611-32.467-2.967-3.031-8.377-5.261-13.624-5.261A20.258,20.258,0,0,0,127.041,247.3C127.042,257.293,133.241,265.379,142.749,267.041Z"/>
      </g>
      <path id="Path_6" data-name="Path 6" class="cls-7" d="M258.847,113.473c2.629-10.508-2.744-24.178-15.722-39.119a8.654,8.654,0,0,0-14.49,2.261,66.371,66.371,0,0,1-5.158,9.66,39.57,39.57,0,0,0-8.929-10.889,8.652,8.652,0,0,0-11.5.138c-2.815,2.566-13.31,10.8-32.132,11.187A85.642,85.642,0,0,0,63.135,125.545a126.328,126.328,0,0,0-7.116,18.438C42.9,148.424,35.363,162.243,34.3,171.256a7.4,7.4,0,0,0,7.353,8.261c.2,0,.4-.008.6-.025a41.13,41.13,0,0,0,5.611,12.092,390.145,390.145,0,0,0-2.525,42.091c0,22.263,8.622,41.13,24.933,54.559,14.958,12.316,35.739,19.1,58.516,19.1,49.113,0,83.415-29.9,83.415-72.7,0-20.919,8.3-47.458,9.5-51.2,1.225-3.168,17.082-42.376,50.652-42.376a7.894,7.894,0,0,0,7.913-7.367C280.811,126.719,272.907,117.983,258.847,113.473ZM181.128,281.121c-13.292,10.756-31.88,16.68-52.34,16.68-51.052,0-73.9-32.2-73.9-64.122,0-.214.031-19.941,2.219-38.937A19.253,19.253,0,0,0,68.354,198.2a16.682,16.682,0,0,0,14.279-7.588,28.611,28.611,0,0,0,4.451-16.039c0-13.345-7.708-27.511-21.988-27.669a116.316,116.316,0,0,1,6.443-16.854,76.007,76.007,0,0,1,143.03,35.86c0,8.1-2.25,16.368-4.855,25.945-3.294,12.109-7.028,25.834-7.028,42.774C202.686,253.632,195.232,269.708,181.128,281.121Zm-105.8-106.6c-14.007-12.255-26.728-8.036-28.72-7.261a14.012,14.012,0,0,0-1.581.491c2.527-6.505,8.822-15.667,19.836-15.667,11.176,0,17.024,11.311,17.024,22.484a23.407,23.407,0,0,1-3.541,13.1A11.536,11.536,0,0,1,68.355,193c-6.67,0-11.76-3.793-15.13-11.274a41.773,41.773,0,0,1-2.963-10.137c3.616-.825,12.122-1.482,21.642,6.848a2.6,2.6,0,1,0,3.423-3.912ZM207.72,80.647a1.7,1.7,0,0,1,1.149-.446,1.747,1.747,0,0,1,1.144.43c2.894,2.5,9.815,9.343,9.242,17.055a15.812,15.812,0,0,1-9.771,3.792,2.6,2.6,0,1,0,0,5.2c15,0,24.542-18.5,27.778-25.949,5.46,4.48,9.471,14.027,10.789,22.145.886,5.462.568,10.165-.78,12.541a71.622,71.622,0,0,0-9.84-.662,2.6,2.6,0,1,0,0,5.2c20.094,0,27.979,7.428,30.852,11.713-26.055,1.867-41.371,21.455-48.521,33.839A81.1,81.1,0,0,0,175.134,93.42C193.733,91.964,204.481,83.6,207.72,80.647Z"/>
      <circle id="Ellipse_2" data-name="Ellipse 2" class="cls-7" cx="12.889" cy="12.889" r="12.889" transform="translate(101.263 166.196)"/>
      <g id="Group_5" data-name="Group 5">
        <path id="Path_7" data-name="Path 7" class="cls-7" d="M163.416,271.508A135.214,135.214,0,0,1,142.3,269.6h0c-10.682-1.868-17.859-10.83-17.859-22.3A22.886,22.886,0,0,1,147.3,224.441c5.813,0,11.89,2.372,15.482,6.042,8.467,8.213,22,24.272,22.056,32.2a5.28,5.28,0,0,1-1.465,3.921C179.565,270.417,171.455,271.508,163.416,271.508Zm-20.22-7.027c14.628,2.552,32.283,2.67,36.5-1.55.87-2.485-7.5-16.068-20.582-28.763-2.629-2.685-7.468-4.527-11.814-4.527A17.681,17.681,0,0,0,129.643,247.3c0,8.856,5.446,15.759,13.553,17.178Z"/>
      </g>
    </g>
  </g>
</svg>
